HIERARCHY
ROOT Hips
{
	OFFSET 0.000000 83.214638 0.000000
	CHANNELS 6 Xposition Yposition Zposition Xrotation Yrotation Zrotation
	JOINT Pelvis
	{
		OFFSET 0.000000 0.000000 0.000000
		CHANNELS 3 Xrotation Yrotation Zrotation
		JOINT LeftUpLeg
		{
			OFFSET 8.479700 -4.795502 -0.379100
			CHANNELS 3 Xrotation Yrotation Zrotation
			JOINT LeftLeg
			{
				OFFSET 0.024144 -32.555107 0.112900
				CHANNELS 3 Xrotation Yrotation Zrotation
				JOINT LeftFoot
				{
					OFFSET -0.024144 -32.638630 -3.012600
					CHANNELS 3 Xrotation Yrotation Zrotation
					JOINT LeftToeBase
					{
						OFFSET 0.970200 -13.225400 11.864200
						CHANNELS 3 Xrotation Yrotation Zrotation
						End Site
						{
							OFFSET 0.000000 12.319262 0.000000
						}
					}
					JOINT LFootTongue
					{
						OFFSET 1.142400 -1.059800 6.665200
						CHANNELS 3 Xrotation Yrotation Zrotation
						End Site
						{
							OFFSET 0.000000 12.319262 0.000000
						}
					}
				}
				JOINT LeftPantLeg
				{
					OFFSET 0.918482 -16.533964 -2.284700
					CHANNELS 3 Xrotation Yrotation Zrotation
					End Site
					{
						OFFSET 0.350399 24.744368 0.000000
					}
				}
			}
		}
		JOINT RightUpLeg
		{
			OFFSET -8.479700 -4.795502 -0.379100
			CHANNELS 3 Xrotation Yrotation Zrotation
			JOINT RightLeg
			{
				OFFSET -0.023144 -32.555092 0.112900
				CHANNELS 3 Xrotation Yrotation Zrotation
				JOINT RightFoot
				{
					OFFSET 0.023144 -32.638641 -3.012700
					CHANNELS 3 Xrotation Yrotation Zrotation
					JOINT RightToeBase
					{
						OFFSET -0.970200 -13.225400 11.864200
						CHANNELS 3 Xrotation Yrotation Zrotation
						End Site
						{
							OFFSET 0.000000 12.319244 0.000000
						}
					}
					JOINT RFootTongue
					{
						OFFSET -1.142200 -1.059800 6.665200
						CHANNELS 3 Xrotation Yrotation Zrotation
						End Site
						{
							OFFSET 0.000000 12.319243 0.000000
						}
					}
				}
				JOINT RightPantLeg
				{
					OFFSET -0.919482 -16.533978 -2.284800
					CHANNELS 3 Xrotation Yrotation Zrotation
					End Site
					{
						OFFSET -0.350400 24.744419 0.000000
					}
				}
			}
		}
	}
	JOINT Spine
	{
		OFFSET 0.000000 7.722000 1.166200
		CHANNELS 3 Xrotation Yrotation Zrotation
		JOINT Spine1
		{
			OFFSET 0.000000 12.024101 0.248800
			CHANNELS 3 Xrotation Yrotation Zrotation
			JOINT Spine2
			{
				OFFSET 0.000000 11.502998 -0.491200
				CHANNELS 3 Xrotation Yrotation Zrotation
				JOINT Neck
				{
					OFFSET 0.000000 18.430702 -3.123100
					CHANNELS 3 Xrotation Yrotation Zrotation
					JOINT Head
					{
						OFFSET 0.000000 9.051102 1.034000
						CHANNELS 3 Xrotation Yrotation Zrotation
						JOINT HairB
						{
							OFFSET 0.208400 24.786102 24.822300
							CHANNELS 3 Xrotation Yrotation Zrotation
							End Site
							{
								OFFSET 0.000000 32.263779 0.000000
							}
						}
						JOINT HairA
						{
							OFFSET -7.081100 24.428299 23.196600
							CHANNELS 3 Xrotation Yrotation Zrotation
							End Site
							{
								OFFSET 0.000000 32.263779 0.000000
							}
						}
						JOINT Hat
						{
							OFFSET 16.728800 15.048294 -15.439601
							CHANNELS 3 Xrotation Yrotation Zrotation
							End Site
							{
								OFFSET 0.000000 32.263779 0.000000
							}
						}
					}
				}
				JOINT LeftShoulder
				{
					OFFSET 6.197800 13.665199 -4.064700
					CHANNELS 3 Xrotation Yrotation Zrotation
					JOINT LeftArm
					{
						OFFSET 7.778100 -0.187103 -1.709300
						CHANNELS 3 Xrotation Yrotation Zrotation
						JOINT LeftForeArm
						{
							OFFSET 22.049376 0.000000 0.000000
							CHANNELS 3 Xrotation Yrotation Zrotation
							JOINT LeftHand
							{
								OFFSET 23.009392 0.000000 0.000000
								CHANNELS 3 Xrotation Yrotation Zrotation
								JOINT LeftHandThumb1
								{
									OFFSET 3.507191 -2.063065 3.133727
									CHANNELS 3 Xrotation Yrotation Zrotation
									JOINT LeftHandThumb2
									{
										OFFSET 3.101337 -1.790558 1.790558
										CHANNELS 3 Xrotation Yrotation Zrotation
										JOINT LeftHandThumb3
										{
											OFFSET 3.058640 -1.765907 1.765906
											CHANNELS 3 Xrotation Yrotation Zrotation
											End Site
											{
												OFFSET -0.415260 3.926476 -0.049563
											}
										}
									}
								}
								JOINT LeftHandIndex1
								{
									OFFSET 11.334419 -0.901459 3.706815
									CHANNELS 3 Xrotation Yrotation Zrotation
									JOINT LeftHandIndex2
									{
										OFFSET 3.283112 0.000000 0.000000
										CHANNELS 3 Xrotation Yrotation Zrotation
										JOINT LeftHandIndex3
										{
											OFFSET 3.323853 0.000000 0.000000
											CHANNELS 3 Xrotation Yrotation Zrotation
											End Site
											{
												OFFSET -1.135597 3.097809 0.402452
											}
										}
									}
								}
								JOINT LeftHandMiddle1
								{
									OFFSET 11.335861 0.000000 0.000000
									CHANNELS 3 Xrotation Yrotation Zrotation
									JOINT LeftHandMiddle2
									{
										OFFSET 3.410492 0.000000 0.000000
										CHANNELS 3 Xrotation Yrotation Zrotation
										JOINT LeftHandMiddle3
										{
											OFFSET 3.312172 0.000000 0.000000
											CHANNELS 3 Xrotation Yrotation Zrotation
											End Site
											{
												OFFSET -1.150200 3.080154 0.400270
											}
										}
									}
								}
								JOINT LeftHandRing1
								{
									OFFSET 11.514786 -0.013176 -3.003090
									CHANNELS 3 Xrotation Yrotation Zrotation
									JOINT LeftHandRing2
									{
										OFFSET 3.053307 0.000000 0.000000
										CHANNELS 3 Xrotation Yrotation Zrotation
										JOINT LeftHandRing3
										{
											OFFSET 3.295807 0.000000 0.000000
											CHANNELS 3 Xrotation Yrotation Zrotation
											End Site
											{
												OFFSET -1.281006 3.013344 0.375733
											}
										}
									}
								}
								JOINT LeftHandPinky1
								{
									OFFSET 10.518692 -0.960396 -5.730441
									CHANNELS 3 Xrotation Yrotation Zrotation
									JOINT LeftHandPinky2
									{
										OFFSET 2.861649 0.000000 0.000000
										CHANNELS 3 Xrotation Yrotation Zrotation
										JOINT LeftHandPinky3
										{
											OFFSET 2.863380 0.000000 0.000000
											CHANNELS 3 Xrotation Yrotation Zrotation
											End Site
											{
												OFFSET -0.843597 2.711159 0.369971
											}
										}
									}
								}
							}
							JOINT LSleeve
							{
								OFFSET 6.676277 -0.344902 -1.011730
								CHANNELS 3 Xrotation Yrotation Zrotation
								End Site
								{
									OFFSET 0.000000 14.885353 0.000000
								}
							}
						}
					}
				}
				JOINT RightShoulder
				{
					OFFSET -6.197800 13.665199 -4.064700
					CHANNELS 3 Xrotation Yrotation Zrotation
					JOINT RightArm
					{
						OFFSET -7.778100 -0.187103 -1.709300
						CHANNELS 3 Xrotation Yrotation Zrotation
						JOINT RightForeArm
						{
							OFFSET -22.049376 0.000000 0.000000
							CHANNELS 3 Xrotation Yrotation Zrotation
							JOINT RightHand
							{
								OFFSET -23.009392 0.000000 0.000000
								CHANNELS 3 Xrotation Yrotation Zrotation
								JOINT RightHandThumb1
								{
									OFFSET -3.507191 -2.063065 3.133727
									CHANNELS 3 Xrotation Yrotation Zrotation
									JOINT RightHandThumb2
									{
										OFFSET -3.101337 -1.790558 1.790558
										CHANNELS 3 Xrotation Yrotation Zrotation
										JOINT RightHandThumb3
										{
											OFFSET -3.058640 -1.765907 1.765906
											CHANNELS 3 Xrotation Yrotation Zrotation
											End Site
											{
												OFFSET 0.415260 3.926476 -0.049563
											}
										}
									}
								}
								JOINT RightHandIndex1
								{
									OFFSET -11.334419 -0.901459 3.706815
									CHANNELS 3 Xrotation Yrotation Zrotation
									JOINT RightHandIndex2
									{
										OFFSET -3.283112 0.000000 0.000000
										CHANNELS 3 Xrotation Yrotation Zrotation
										JOINT RightHandIndex3
										{
											OFFSET -3.323853 0.000000 0.000000
											CHANNELS 3 Xrotation Yrotation Zrotation
											End Site
											{
												OFFSET 1.135597 3.097809 0.402452
											}
										}
									}
								}
								JOINT RightHandMiddle1
								{
									OFFSET -11.335861 0.000000 0.000000
									CHANNELS 3 Xrotation Yrotation Zrotation
									JOINT RightHandMiddle2
									{
										OFFSET -3.410492 0.000000 0.000000
										CHANNELS 3 Xrotation Yrotation Zrotation
										JOINT RightHandMiddle3
										{
											OFFSET -3.312172 0.000000 0.000000
											CHANNELS 3 Xrotation Yrotation Zrotation
											End Site
											{
												OFFSET 1.150200 3.080154 0.400270
											}
										}
									}
								}
								JOINT RightHandRing1
								{
									OFFSET -11.514786 -0.013176 -3.003090
									CHANNELS 3 Xrotation Yrotation Zrotation
									JOINT RightHandRing2
									{
										OFFSET -3.053307 0.000000 0.000000
										CHANNELS 3 Xrotation Yrotation Zrotation
										JOINT RightHandRing3
										{
											OFFSET -3.295807 0.000000 0.000000
											CHANNELS 3 Xrotation Yrotation Zrotation
											End Site
											{
												OFFSET 1.281006 3.013344 0.375733
											}
										}
									}
								}
								JOINT RightHandPinky1
								{
									OFFSET -10.518692 -0.960396 -5.730441
									CHANNELS 3 Xrotation Yrotation Zrotation
									JOINT RightHandPinky2
									{
										OFFSET -2.861649 0.000000 0.000000
										CHANNELS 3 Xrotation Yrotation Zrotation
										JOINT RightHandPinky3
										{
											OFFSET -2.863380 0.000000 0.000000
											CHANNELS 3 Xrotation Yrotation Zrotation
											End Site
											{
												OFFSET 0.843597 2.711159 0.369971
											}
										}
									}
								}
							}
							JOINT RSleeve
							{
								OFFSET -6.676277 -0.344902 -1.011730
								CHANNELS 3 Xrotation Yrotation Zrotation
								End Site
								{
									OFFSET 0.000000 14.885353 0.000000
								}
							}
						}
					}
				}
				JOINT Backpack
				{
					OFFSET 0.000000 -2.471497 36.677502
					CHANNELS 3 Xrotation Yrotation Zrotation
					End Site
					{
						OFFSET 0.000000 20.427315 0.000000
					}
				}
				JOINT Hood
				{
					OFFSET 0.000000 18.754097 -10.431000
					CHANNELS 3 Xrotation Yrotation Zrotation
					JOINT Hood1
					{
						OFFSET 0.000000 -5.011002 -7.685901
						CHANNELS 3 Xrotation Yrotation Zrotation
						End Site
						{
							OFFSET 0.000000 9.175140 0.000000
						}
					}
				}
				JOINT LHoodieString
				{
					OFFSET 5.250500 16.397697 3.089900
					CHANNELS 3 Xrotation Yrotation Zrotation
					JOINT LHoodieString1
					{
						OFFSET 0.257700 -6.364304 3.694600
						CHANNELS 3 Xrotation Yrotation Zrotation
						JOINT LHoodieString2
						{
							OFFSET 0.000000 -9.643799 2.679100
							CHANNELS 3 Xrotation Yrotation Zrotation
							End Site
							{
								OFFSET 0.000000 10.009018 0.000000
							}
						}
					}
				}
				JOINT RHoodieString
				{
					OFFSET -5.250500 16.397697 3.089900
					CHANNELS 3 Xrotation Yrotation Zrotation
					JOINT RHoodieString1
					{
						OFFSET -0.257700 -6.364304 3.694600
						CHANNELS 3 Xrotation Yrotation Zrotation
						JOINT RHoodieString2
						{
							OFFSET 0.000000 -9.643799 2.679100
							CHANNELS 3 Xrotation Yrotation Zrotation
							End Site
							{
								OFFSET 0.000000 10.009018 0.000000
							}
						}
					}
				}
			}
			JOINT LBackpack_Strap
			{
				OFFSET 15.223200 -7.719803 -6.610900
				CHANNELS 3 Xrotation Yrotation Zrotation
				End Site
				{
					OFFSET 0.000000 16.040596 0.000000
				}
			}
			JOINT RBackpack_Strap
			{
				OFFSET -15.223000 -7.719803 -6.610900
				CHANNELS 3 Xrotation Yrotation Zrotation
				End Site
				{
					OFFSET 0.000000 16.040596 0.000000
				}
			}
		}
	}
	JOINT BoyFacialAnim_Joint
	{
		OFFSET 1.000000 -82.208099 -1.550900
		CHANNELS 3 Xrotation Yrotation Zrotation
		End Site
		{
			OFFSET 0.000000 30.012791 0.000000
		}
	}
}
MOTION
Frames: 4
Frame Time: 0.016667
0.023111 63.713249 1.109324 16.582511 -8.313388 -5.304683 -0.000002 0.000000 -0.000000 -82.846295 -2.209456 4.151656 50.474616 8.081374 -4.040710 9.900463 25.706289 11.070632 0.000000 -0.000000 -0.000000 0.000000 -0.000000 -0.000000 -0.000001 0.000000 -0.000001 4.589927 -16.423810 4.012960 48.808836 -8.743947 10.164723 -25.450055 -10.294219 13.442070 -0.000003 0.000002 -0.000001 -0.000003 0.000002 -0.000001 -0.000000 -0.000002 0.000000 10.706729 14.018183 -8.101299 2.878198 4.087947 -0.126405 2.848463 4.312290 -0.311449 -0.690423 -2.335956 4.374013 -6.949599 -9.364417 11.092254 -0.000001 -0.000000 0.000000 -0.000001 -0.000000 0.000000 -0.000001 -0.000000 0.000000 1.187663 -1.370111 -14.873633 -9.759255 30.208400 -41.048853 0.000012 -11.762797 -0.000011 17.749467 -17.726709 21.007638 -5.456652 -6.701475 3.223888 8.077459 27.563304 1.095387 -0.000000 0.000002 -0.000002 -1.812266 -6.056782 -12.583245 0.237194 1.651689 -16.342805 -0.000001 -0.000001 -0.000000 -1.249855 -0.637585 -18.645250 0.387943 2.098228 -20.947910 0.000001 -0.000002 -0.000002 0.049649 3.688801 -26.109464 0.502164 2.375013 -23.874308 -0.000001 -0.000001 0.000001 0.229230 4.355122 -33.121192 0.780415 2.923327 -29.888669 -0.000001 -0.000002 0.000001 -0.000003 0.000000 0.000000 2.870343 11.957084 -6.152307 -33.803685 70.877542 6.927822 -0.000908 94.709630 0.000937 17.111801 20.467032 -11.105449 -15.303025 26.927620 3.986235 9.854607 -45.625968 -5.441312 0.000000 -0.000001 0.000001 0.782859 -4.716617 13.868234 0.169907 -1.247731 15.507873 0.000001 -0.000001 0.000002 1.576766 -6.016275 32.822279 0.816453 -2.636014 34.413628 0.000003 0.000000 0.000002 2.347874 -6.542682 43.827408 1.218014 -3.142188 42.367858 -0.000001 0.000000 0.000002 3.008734 -7.082336 54.088760 1.765795 -3.652488 51.591455 0.000002 -0.000000 0.000000 -0.000001 0.000001 0.000001 0.000000 0.000002 -0.000000 0.000000 0.000002 -0.000000 0.000000 0.000002 -0.000000 0.000000 0.000002 -0.000000 0.000000 0.000002 -0.000001 -0.000001 0.000000 -0.000000 0.000000 0.000002 -0.000000 0.000000 0.000002 -0.000001 -0.000001 0.000000 -0.000000 0.000000 0.000000 -0.000000 0.000000 0.000000 -0.000000 -0.000002 0.000000 -0.000000 
-0.477553 63.781342 2.266485 18.143361 -8.032330 -5.294825 0.000001 -0.000001 -0.000001 -84.616345 -2.303983 4.258249 52.552585 7.426628 -3.943918 8.336876 25.638066 10.494688 0.000000 0.000000 -0.000000 0.000000 0.000000 -0.000000 -0.000000 -0.000001 0.000001 -1.594252 -15.825350 1.358802 54.304075 -8.570503 10.111025 -22.606348 -10.971534 14.516233 -0.000002 0.000002 -0.000000 -0.000002 0.000002 -0.000000 -0.000002 -0.000001 0.000000 11.175860 13.526288 -8.308191 2.886035 3.978104 -0.232994 2.857348 4.195420 -0.413709 -0.775485 -2.317383 4.285786 -7.176072 -9.471884 10.982037 -0.000001 -0.000000 -0.000000 -0.000001 -0.000000 -0.000000 -0.000001 -0.000000 -0.000000 1.200890 -1.794893 -15.693768 -10.576661 29.125136 -39.831648 -0.000002 -14.202309 0.000013 18.131920 -16.995288 22.228612 -5.549643 -6.736313 3.295547 8.061873 27.560104 1.140167 0.000001 0.000000 -0.000000 -1.804120 -6.064270 -12.527723 0.233820 1.640178 -16.225644 0.000000 0.000000 -0.000005 -1.242784 -0.654473 -18.510868 0.385023 2.090608 -20.868221 -0.000001 0.000003 0.000001 0.044793 3.667155 -25.898592 0.498591 2.366932 -23.787831 -0.000000 0.000000 -0.000000 0.274481 4.440093 -32.904928 0.769652 2.904561 -29.677042 -0.000001 0.000003 0.000000 0.000001 0.000002 0.000001 2.895097 12.404894 -5.753555 -30.219964 69.244260 3.681439 -0.000131 96.122420 0.000128 20.583421 21.050431 -13.126467 -15.466379 26.941189 3.833662 9.820647 -45.228645 -5.419499 0.000000 -0.000001 0.000003 0.750057 -4.663067 13.088634 0.153304 -1.186292 14.726122 -0.000001 0.000000 0.000004 1.442556 -5.897371 30.789578 0.743603 -2.526488 32.796082 0.000003 0.000001 0.000000 2.163466 -6.430853 41.453723 1.092395 -2.998884 40.023030 -0.000004 -0.000000 0.000002 2.840318 -7.022703 51.977268 1.490549 -3.416696 47.129224 -0.000001 0.000001 0.000000 0.000000 -0.000001 0.000000 0.000000 -0.000001 0.000001 0.000000 -0.000001 0.000001 0.000000 -0.000001 0.000001 0.000000 -0.000001 0.000001 0.000000 -0.000001 -0.000000 0.000000 0.000001 -0.000000 0.000000 -0.000001 0.000001 0.000000 -0.000001 -0.000000 0.000000 0.000001 -0.000000 -0.000002 0.000000 0.000000 -0.000002 0.000000 0.000000 0.000001 -0.000001 -0.000001 
-0.936688 63.861710 3.431164 19.744713 -7.757168 -5.296224 -0.000001 -0.000000 -0.000000 -86.310819 -2.396811 4.340267 54.455104 6.806070 -3.851196 6.796795 25.583010 9.979643 0.000000 -0.000002 -0.000000 0.000000 -0.000002 -0.000000 -0.000001 -0.000000 0.000001 -7.403476 -15.013710 -1.306634 58.742980 -7.976908 10.054005 -18.647035 -11.478344 15.443263 0.000005 0.000003 -0.000000 0.000005 0.000003 -0.000000 -0.000000 -0.000000 0.000001 11.653821 12.998032 -8.549868 2.894025 3.864282 -0.347311 2.866431 4.074821 -0.524101 -0.868217 -2.297582 4.191816 -7.411887 -9.572892 10.876495 0.000000 -0.000000 -0.000000 0.000000 -0.000000 -0.000000 0.000000 -0.000000 -0.000000 1.202242 -2.183949 -16.571267 -11.438023 28.007286 -38.630857 -0.000003 -16.749026 -0.000006 18.480081 -16.138081 23.428261 -5.643227 -6.771496 3.367531 8.046187 27.556893 1.185230 0.000000 0.000005 -0.000001 -1.795913 -6.071794 -12.471867 0.230459 1.628581 -16.107799 -0.000001 0.000001 0.000002 -1.235638 -0.671461 -18.375628 0.382577 2.084170 -20.800769 -0.000001 0.000001 0.000002 0.039985 3.645359 -25.686410 0.495640 2.360212 -23.716039 -0.000003 0.000001 -0.000000 0.319289 4.525942 -32.687322 0.758936 2.885676 -29.464719 0.000000 0.000001 -0.000000 0.000002 0.000003 0.000002 2.921963 12.894763 -5.335064 -27.021034 67.470248 0.787292 -0.000228 97.583644 0.000226 24.180837 21.456162 -15.177640 -15.633615 26.955504 3.677444 9.785877 -44.821788 -5.396977 -0.000000 0.000000 -0.000000 0.717154 -4.607649 12.288695 0.137025 -1.122544 13.918168 -0.000001 0.000003 0.000002 1.306882 -5.767766 28.660259 0.670831 -2.409946 31.106608 0.000001 0.000000 -0.000000 1.971121 -6.299208 38.969378 0.968380 -2.844889 37.590752 -0.000002 -0.000002 0.000000 2.670729 -6.955878 49.823713 1.221438 -3.145933 42.430126 0.000002 -0.000001 -0.000002 0.000001 -0.000000 -0.000000 0.000001 0.000001 -0.000000 0.000001 0.000001 -0.000000 0.000001 0.000001 -0.000000 0.000001 0.000001 -0.000000 0.000001 0.000001 -0.000000 -0.000001 0.000001 -0.000000 0.000001 0.000001 -0.000000 0.000001 0.000001 -0.000000 -0.000001 0.000001 -0.000000 0.000002 -0.000000 0.000001 0.000002 -0.000000 0.000001 -0.000001 -0.000000 -0.000000 
-1.362312 63.949776 4.600031 21.381815 -7.486501 -5.306061 0.000001 0.000000 0.000001 -87.940817 -2.486547 4.401270 56.205077 6.214762 -3.761767 5.280321 25.538885 9.514262 0.000000 -0.000002 -0.000000 0.000000 -0.000002 -0.000000 0.000000 0.000000 0.000001 -12.835179 -14.052127 -3.936591 62.149073 -6.939954 9.988321 -13.888175 -11.835257 16.137391 0.000002 0.000003 -0.000003 0.000002 0.000003 -0.000003 -0.000000 0.000001 -0.000000 12.137309 12.438568 -8.820670 2.901923 3.747262 -0.467801 2.875554 3.951231 -0.641008 -0.967457 -2.276754 4.092981 -7.655624 -9.668305 10.774949 -0.000000 -0.000000 -0.000000 -0.000000 -0.000000 -0.000000 -0.000000 -0.000000 -0.000000 1.192189 -2.545271 -17.494051 -12.336928 26.855249 -37.455139 0.000003 -19.379958 0.000005 18.788836 -15.181776 24.605548 -5.737359 -6.807004 3.439793 8.030447 27.553649 1.230505 -0.000002 -0.000000 0.000003 -1.787660 -6.079353 -12.415701 0.227104 1.616925 -15.989350 -0.000003 -0.000001 -0.000005 -1.228403 -0.688518 -18.239648 0.380517 2.078758 -20.744275 -0.000000 -0.000001 -0.000000 0.035242 3.623438 -25.473074 0.493220 2.354722 -23.657458 -0.000002 0.000001 -0.000000 0.363618 4.612630 -32.468493 0.748254 2.866708 -29.251737 0.000001 -0.000002 -0.000002 -0.000000 0.000005 0.000003 2.947553 13.415551 -4.901027 -24.203554 65.584030 -1.746863 -0.000074 99.080719 0.000080 27.863639 21.684517 -17.233054 -15.804312 26.970534 3.518032 9.750419 -44.406495 -5.373790 0.000000 0.000001 -0.000002 0.684511 -4.550877 11.475697 0.121337 -1.057236 13.093349 -0.000000 0.000000 0.000004 1.172681 -5.629150 26.469222 0.599704 -2.288008 29.371080 0.000001 0.000000 -0.000000 1.777387 -6.150704 36.414559 0.848399 -2.682014 35.102347 -0.000001 -0.000003 -0.000000 2.501534 -6.882138 47.643370 0.967615 -2.843880 37.575094 -0.000000 -0.000002 -0.000002 -0.000001 -0.000001 0.000000 0.000004 0.000000 0.000001 0.000004 0.000000 0.000001 0.000004 0.000000 0.000001 0.000004 0.000000 0.000001 0.000004 0.000000 0.000000 0.000003 -0.000001 0.000001 0.000004 0.000000 0.000001 0.000004 0.000000 0.000000 0.000003 -0.000001 0.000001 -0.000001 0.000000 0.000000 -0.000001 0.000000 0.000000 0.000001 0.000000 0.000001 
